<svg xmlns="http://www.w3.org/2000/svg" width="644" height="388" viewBox="0 0 644 388">
<g>
<path d="M 393.39 175.82 C394.48,177.59 388.61,176.43 385.73,174.30 C382.90,172.21 382.82,171.42 385.50,171.96 C386.05,172.08 386.16,171.83 385.75,171.41 C385.33,171.00 385.62,169.71 386.38,168.54 C387.61,166.66 387.57,166.43 386.00,166.43 C384.86,166.43 384.43,166.95 384.78,167.88 C385.13,168.77 384.91,169.07 384.24,168.65 C383.63,168.27 382.81,168.49 382.41,169.14 C381.96,169.87 382.12,170.04 382.85,169.60 C383.48,169.20 384.00,169.31 384.00,169.82 C384.00,170.34 382.88,170.98 381.50,171.24 C379.03,171.72 377.93,170.52 380.15,169.78 C380.79,169.57 379.77,168.64 377.90,167.72 C375.77,166.67 375.17,166.04 376.31,166.02 C377.30,166.01 377.84,165.54 377.49,164.98 C377.14,164.42 376.49,164.20 376.04,164.48 C375.58,164.76 374.95,164.32 374.64,163.49 C373.97,161.75 370.43,161.49 369.43,163.11 C368.97,163.86 369.51,164.00 371.12,163.54 C372.89,163.04 373.12,163.13 372.04,163.87 C370.78,164.74 370.83,165.15 372.38,166.87 C373.74,168.37 373.93,169.30 373.16,170.68 C372.40,172.03 372.55,172.95 373.73,174.25 C376.36,177.16 374.58,176.21 371.63,173.13 C369.09,170.48 369.00,170.14 370.51,168.63 C371.41,167.73 371.65,167.00 371.04,167.00 C370.43,167.00 369.67,167.69 369.35,168.53 C368.87,169.78 368.48,169.83 367.13,168.78 C365.68,167.64 365.65,167.69 366.86,169.23 C368.06,170.77 367.90,171.09 365.45,172.02 C363.10,172.91 362.29,172.72 360.09,170.76 C352.82,164.26 344.32,156.78 342.93,155.64 C342.06,154.93 334.86,150.39 326.93,145.55 C305.00,132.16 297.22,126.49 288.75,117.70 C282.18,110.89 281.00,109.14 281.00,106.26 C281.00,102.00 279.29,98.68 277.45,99.38 C274.23,100.62 266.16,87.35 267.70,83.34 C268.02,82.50 267.71,82.04 266.93,82.21 C265.04,82.63 263.78,73.37 264.25,62.50 C264.61,54.30 265.02,52.74 268.89,45.00 C273.51,35.75 274.24,34.68 278.23,31.12 C281.55,28.17 285.71,27.61 289.00,29.69 C291.93,31.53 296.94,36.71 297.12,38.06 C297.19,38.58 297.34,39.56 297.45,40.25 C297.55,40.94 296.19,43.08 294.43,45.00 C284.86,55.41 283.96,67.12 291.56,82.11 C294.42,87.76 311.85,105.30 317.50,108.22 C319.70,109.36 322.89,111.35 324.59,112.64 C326.30,113.94 328.01,115.00 328.41,115.00 C328.81,115.00 330.61,116.12 332.41,117.50 C334.21,118.88 336.00,120.00 336.38,120.00 C337.01,120.00 352.93,128.75 353.94,129.66 C354.19,129.88 354.28,131.84 354.15,134.02 C353.80,140.02 355.68,145.55 359.02,148.36 C361.98,150.86 363.02,154.00 360.88,154.00 C360.12,154.00 360.17,154.50 361.04,155.55 C361.74,156.40 362.81,156.90 363.42,156.67 C364.02,156.44 365.37,157.39 366.43,158.79 C367.48,160.19 367.91,161.06 367.38,160.73 C366.85,160.41 366.35,161.01 366.27,162.07 C366.13,163.93 366.21,163.93 368.45,162.25 C369.74,161.29 370.34,160.22 369.81,159.89 C369.27,159.55 368.87,158.99 368.91,158.64 C369.31,155.69 368.85,154.91 367.06,155.48 C364.45,156.31 362.17,152.53 364.70,151.56 C365.79,151.14 367.12,151.80 368.54,153.44 C369.73,154.83 370.95,155.72 371.25,155.42 C372.52,154.15 378.93,156.39 382.09,159.20 C383.96,160.87 384.83,161.88 384.00,161.46 C383.17,161.03 382.85,161.06 383.28,161.54 C383.71,162.01 384.82,162.50 385.76,162.64 C386.70,162.78 387.62,163.37 387.82,163.95 C388.01,164.53 388.61,165.00 389.14,165.00 C389.68,165.00 389.84,164.55 389.50,164.00 C389.16,163.45 389.25,163.00 389.70,163.00 C390.45,163.00 393.36,166.85 393.48,168.00 C393.51,168.27 393.88,169.05 394.31,169.73 C394.74,170.41 394.60,171.88 394.00,173.00 C393.40,174.12 393.12,175.39 393.39,175.82 ZM 339.71 296.21 C337.77,299.12 334.48,303.08 332.40,305.00 C328.64,308.49 328.63,308.49 330.51,305.50 C334.82,298.65 336.99,294.00 340.11,285.00 C343.20,276.08 343.39,274.68 343.38,262.00 C343.37,249.23 342.10,241.41 338.98,235.01 C338.58,234.18 336.79,229.68 335.00,225.00 C329.50,210.62 320.67,196.88 310.68,187.15 C304.56,181.18 302.17,181.77 293.65,191.32 C285.68,200.25 280.03,208.95 276.55,217.65 C274.12,223.73 269.84,231.22 271.33,226.79 C271.70,225.68 271.01,224.37 269.37,223.08 C266.94,221.17 266.88,220.87 267.93,215.79 C269.64,207.46 267.86,192.34 264.41,186.01 C260.13,178.14 259.62,178.00 254.25,183.09 C251.69,185.51 250.24,186.60 251.02,185.50 C252.34,183.65 252.26,183.65 249.97,185.62 C248.61,186.79 246.87,187.52 246.11,187.24 C245.26,186.94 244.99,187.18 245.42,187.87 C245.80,188.49 245.60,189.00 244.97,189.00 C244.34,189.00 242.94,190.01 241.85,191.25 L 239.89 193.50 L 241.11 191.00 C244.73,183.57 255.89,172.00 259.43,172.00 C263.07,172.00 275.01,190.83 276.70,199.25 C277.19,201.71 279.00,203.23 279.00,201.18 C279.00,199.89 286.63,189.98 291.73,184.66 C298.77,177.31 302.54,174.72 305.05,175.52 C308.09,176.48 322.24,190.89 326.61,197.47 C328.63,200.51 330.57,203.00 330.93,203.00 C331.28,203.00 331.68,201.59 331.81,199.88 C332.47,191.21 345.20,171.00 349.99,171.00 C352.24,171.00 363.10,182.55 368.04,190.19 C372.53,197.13 376.55,207.91 378.24,217.50 C380.05,227.84 379.77,248.74 377.76,252.77 C376.88,254.54 375.85,257.45 375.46,259.24 C375.07,261.03 373.88,264.22 372.82,266.32 C371.26,269.41 370.61,269.92 369.49,268.99 C368.72,268.35 367.65,268.10 367.11,268.43 C366.12,269.04 366.62,266.83 368.90,260.50 C370.91,254.90 373.00,241.53 373.00,234.23 C373.00,223.96 369.55,208.97 365.02,199.50 C361.47,192.10 351.67,178.00 350.07,178.00 C347.52,178.00 339.31,195.77 340.47,198.78 C340.78,199.59 340.52,200.87 339.90,201.62 C338.43,203.39 340.36,217.24 343.15,225.00 C347.47,236.98 348.93,242.21 350.12,249.96 C352.39,264.84 348.19,283.52 339.71,296.21 ZM 232.66 269.55 C232.91,270.20 232.21,270.97 231.11,271.26 C228.96,271.82 227.99,271.30 228.02,269.58 C228.02,268.99 228.42,269.11 228.89,269.86 C229.43,270.71 229.98,270.83 230.38,270.20 C231.29,268.71 229.97,265.90 228.73,266.67 C228.05,267.09 227.90,266.70 228.32,265.61 C228.72,264.55 228.58,264.14 227.94,264.53 C227.38,264.89 226.25,264.62 225.43,263.94 C224.62,263.27 223.69,262.98 223.37,263.30 C222.13,264.53 220.33,261.43 220.66,258.62 C220.85,256.99 220.71,255.96 220.35,256.32 C219.38,257.28 216.00,252.98 216.00,250.79 C216.00,249.74 215.61,249.12 215.14,249.41 C214.66,249.71 214.27,248.95 214.26,247.72 C214.22,243.08 213.94,242.43 212.00,242.43 C210.90,242.43 209.99,242.89 209.97,243.46 C209.95,244.03 209.06,243.45 207.99,242.16 C206.92,240.88 205.40,239.74 204.62,239.62 C203.84,239.51 202.48,238.81 201.60,238.08 C200.72,237.35 200.00,237.01 200.00,237.33 C200.00,238.67 194.01,235.66 192.75,233.68 C186.93,224.50 188.40,189.09 195.14,175.75 C196.19,173.69 197.25,172.00 197.51,172.00 C197.76,172.00 199.52,175.04 201.41,178.75 C205.34,186.48 211.44,193.16 221.65,200.90 C228.58,206.16 228.75,206.39 227.83,209.40 C226.33,214.35 224.98,238.11 225.88,243.80 C226.33,246.66 226.44,249.00 226.13,249.00 C225.81,249.00 222.69,245.96 219.19,242.25 C215.69,238.54 213.74,236.89 214.86,238.58 C215.98,240.27 219.20,244.10 222.02,247.08 C226.19,251.49 227.62,253.98 229.67,260.43 C231.06,264.79 232.41,268.89 232.66,269.55 ZM 394.00 256.95 C393.17,257.86 391.38,258.67 390.01,258.75 C388.18,258.87 387.91,258.68 388.96,258.02 C389.76,257.53 390.83,257.40 391.36,257.72 C391.88,258.04 391.98,257.78 391.59,257.14 C391.19,256.49 390.44,256.23 389.93,256.54 C388.66,257.33 388.72,256.57 390.67,248.26 C391.60,244.28 392.05,240.72 391.68,240.35 C390.61,239.28 390.28,240.14 389.69,245.50 C388.81,253.50 387.20,257.00 384.40,257.00 C381.53,257.00 381.36,255.40 383.51,248.41 C385.75,241.13 385.57,225.40 383.12,214.26 C380.87,203.99 375.83,191.52 371.25,184.86 L 368.24 180.49 L 370.62 178.70 C371.93,177.71 373.00,177.36 373.00,177.90 C373.00,178.45 372.21,179.36 371.25,179.93 C369.85,180.76 369.76,181.14 370.84,181.84 C371.57,182.33 372.19,183.12 372.21,183.61 C372.34,186.29 373.25,187.04 374.87,185.82 C376.21,184.81 376.29,184.83 375.31,185.93 C373.57,187.90 376.44,190.71 378.47,189.03 C379.62,188.07 380.27,188.60 381.93,191.87 C383.06,194.08 383.71,196.60 383.37,197.48 C382.99,198.47 383.23,198.97 383.99,198.79 C385.44,198.45 388.57,206.84 389.56,213.75 C389.94,216.36 390.63,219.18 391.09,220.00 C393.60,224.45 390.40,208.44 386.90,199.04 C385.02,193.97 384.99,193.48 386.53,192.35 C387.45,191.68 388.80,191.37 389.55,191.66 C390.41,191.99 391.48,190.79 392.50,188.36 C393.99,184.78 393.98,184.45 392.30,183.14 C390.64,181.84 390.63,181.78 392.25,182.33 C394.11,182.97 394.69,181.54 393.00,180.50 C392.45,180.16 392.01,179.35 392.03,178.69 C392.05,178.04 393.19,178.78 394.56,180.34 C395.94,181.91 397.61,183.27 398.28,183.37 C398.95,183.47 400.06,183.91 400.75,184.34 C401.44,184.77 402.00,184.83 402.00,184.49 C402.00,184.14 402.67,184.53 403.50,185.36 C404.33,186.18 405.00,187.37 405.00,187.99 C405.00,188.61 405.38,188.88 405.85,188.59 C406.32,188.30 407.66,189.18 408.84,190.53 C410.02,191.89 411.56,193.00 412.25,193.00 C413.50,193.00 419.00,201.18 419.00,203.04 C419.00,204.01 417.60,204.38 415.19,204.06 C414.47,203.97 413.97,204.47 414.06,205.19 C414.48,208.31 413.91,211.00 412.83,211.00 C412.19,211.00 411.96,210.71 412.32,210.35 C413.34,209.33 409.00,206.06 407.42,206.67 C406.63,206.97 405.99,206.62 405.98,205.86 C405.97,204.73 405.82,204.73 405.10,205.88 C404.62,206.64 403.72,206.95 403.11,206.57 C401.48,205.56 401.76,206.61 403.61,208.46 C404.93,209.79 405.49,209.84 406.80,208.78 C408.03,207.79 408.21,207.78 407.63,208.76 C407.19,209.48 407.62,210.75 408.63,211.76 C410.30,213.41 410.36,213.41 409.73,211.75 C409.36,210.79 409.48,210.00 410.00,210.00 C411.37,210.00 413.20,213.86 412.43,215.12 C412.01,215.79 412.65,215.74 414.13,214.97 C416.37,213.81 416.35,213.90 413.75,216.68 C412.24,218.29 411.00,220.09 411.00,220.68 C411.00,221.27 410.42,222.23 409.72,222.82 C407.86,224.36 408.72,232.32 410.66,231.58 C411.58,231.22 411.84,231.44 411.39,232.18 C410.91,232.95 411.22,233.13 412.33,232.70 C415.19,231.61 418.23,235.88 417.51,240.00 C416.46,246.02 414.96,249.80 413.39,250.40 C412.55,250.72 412.17,251.47 412.53,252.06 C413.69,253.93 409.90,257.00 406.43,257.00 C402.57,257.00 399.82,256.09 400.48,255.04 C401.37,253.59 395.48,255.33 394.00,256.95 ZM 324.26 304.27 C322.36,306.89 319.88,309.53 318.75,310.13 L 316.70 311.23 L 318.74 308.37 C320.43,305.98 320.55,305.29 319.43,304.25 C317.67,302.61 315.86,302.67 312.36,304.49 C310.79,305.32 308.64,305.99 307.58,305.99 C306.52,306.00 304.83,306.75 303.82,307.66 C302.27,309.07 301.57,309.13 299.25,308.07 C297.74,307.38 296.33,306.90 296.11,306.99 C295.90,307.09 295.34,306.57 294.88,305.84 C294.17,304.72 294.03,304.72 294.02,305.83 C294.01,306.57 293.44,306.96 292.75,306.72 C292.06,306.47 290.74,306.66 289.82,307.13 C286.61,308.78 279.76,298.00 274.20,282.54 C271.40,274.78 270.11,258.95 271.56,250.25 L 272.35 245.50 L 273.13 252.00 C274.99,267.50 284.33,281.32 297.77,288.46 L 304.33 291.94 L 309.91 288.96 C326.07,280.33 334.20,267.64 335.42,249.13 C335.98,240.62 336.57,239.28 337.37,244.68 C340.89,268.34 336.79,286.99 324.26,304.27 ZM 342.00 58.40 C342.00,58.69 341.10,59.41 340.00,60.00 C338.06,61.04 337.44,60.36 337.90,57.68 C337.98,57.23 337.25,56.95 336.27,57.05 C335.30,57.15 333.99,57.18 333.37,57.12 C329.94,56.77 315.77,32.00 319.00,32.00 C319.52,32.00 319.65,31.25 319.30,30.34 C318.87,29.22 319.04,28.91 319.83,29.39 C320.47,29.79 321.00,29.64 321.00,29.06 C321.00,28.48 321.35,28.11 321.77,28.25 C322.19,28.39 323.21,27.93 324.02,27.23 C333.47,19.13 335.56,19.05 345.67,26.41 C352.92,31.69 358.69,38.84 359.60,43.66 C359.95,45.55 360.03,47.30 359.77,47.56 C359.52,47.82 356.73,46.85 353.59,45.41 C349.89,43.72 347.55,41.95 346.96,40.40 C345.81,37.36 341.00,36.94 341.00,39.88 C341.00,40.91 341.63,42.27 342.39,42.91 C345.03,45.10 345.01,48.08 342.32,50.77 C340.92,52.18 339.39,54.62 338.94,56.21 C338.20,58.78 338.32,59.03 340.06,58.48 C341.12,58.14 342.00,58.10 342.00,58.40 ZM 277.00 309.23 C277.00,310.77 275.18,309.91 268.41,305.15 C264.61,302.48 257.84,296.43 253.36,291.70 C246.81,284.78 244.24,281.09 240.18,272.80 C233.41,258.98 230.63,247.63 230.56,233.50 C230.48,218.69 234.30,201.00 237.58,201.00 C238.30,201.00 239.51,200.10 240.28,199.01 C241.05,197.91 242.00,197.33 242.39,197.73 C242.78,198.12 242.84,197.75 242.51,196.90 C242.13,195.89 242.77,194.97 244.38,194.24 L 246.84 193.12 L 243.97 199.31 C238.90,210.23 236.86,220.10 236.87,233.50 C236.88,245.10 237.91,251.73 241.49,263.39 C243.30,269.29 250.90,282.80 255.88,288.99 C260.12,294.25 271.15,304.85 274.60,306.98 C275.92,307.80 277.00,308.81 277.00,309.23 ZM 275.00 297.69 C277.69,302.81 279.55,307.00 279.14,307.00 C277.84,307.00 272.30,300.71 268.58,295.02 C265.06,289.63 264.12,287.34 265.91,288.44 C266.41,288.75 266.57,288.08 266.28,286.94 C265.98,285.81 265.17,285.10 264.48,285.37 C263.68,285.68 262.65,283.99 261.61,280.68 C258.64,271.16 257.76,263.79 258.45,254.24 C259.15,244.66 263.10,228.80 264.96,228.18 C265.54,227.99 265.72,227.31 265.36,226.66 C265.00,226.02 265.70,226.52 266.91,227.77 C268.13,229.02 269.54,229.78 270.06,229.46 C271.35,228.67 271.34,228.71 268.38,239.74 C262.92,260.10 265.04,278.72 275.00,297.69 ZM 220.54 183.94 C219.44,185.72 216.40,184.69 213.62,181.59 C207.06,174.31 196.85,153.93 201.05,156.53 C201.66,156.91 201.35,155.71 200.35,153.86 C199.36,152.01 198.48,149.05 198.41,147.27 C198.30,144.31 198.66,144.66 202.59,151.27 C210.84,165.13 218.63,172.79 230.76,178.96 C236.91,182.08 238.78,183.70 235.14,182.75 C234.12,182.48 232.47,182.72 231.48,183.27 C230.07,184.06 229.80,183.97 230.23,182.85 C230.58,181.94 230.12,181.43 228.96,181.43 C227.96,181.43 227.37,181.78 227.63,182.21 C228.15,183.06 226.79,183.32 223.35,183.05 C222.16,182.96 220.90,183.36 220.54,183.94 ZM 367.36 84.50 C367.05,85.32 366.20,86.00 365.49,86.00 C364.14,86.00 355.93,77.37 353.12,73.00 C352.24,71.62 350.00,68.48 348.14,66.02 L 344.76 61.54 L 349.13 57.77 C353.74,53.80 357.38,52.94 358.39,55.58 C358.73,56.45 359.00,59.47 359.00,62.29 C359.00,66.10 359.94,69.41 362.66,75.21 C364.67,79.49 366.68,83.00 367.13,83.00 C367.57,83.00 367.68,83.68 367.36,84.50 ZM 346.73 301.00 C346.25,301.00 344.23,302.24 342.23,303.75 C340.24,305.26 338.92,305.98 339.31,305.34 C339.69,304.69 339.67,304.02 339.26,303.84 C338.84,303.65 342.47,299.67 347.31,295.00 C352.16,290.33 355.80,287.37 355.39,288.42 C354.79,290.00 354.98,290.22 356.47,289.65 C358.07,289.04 358.12,289.17 356.95,290.73 C354.32,294.22 347.57,301.00 346.73,301.00 ZM 242.73 286.91 C243.70,287.48 243.94,287.95 243.26,287.97 C242.58,287.99 241.48,287.14 240.83,286.10 C240.18,285.05 239.13,284.40 238.51,284.64 C236.01,285.59 231.97,277.99 232.93,274.14 C233.48,271.98 233.81,272.22 237.00,277.14 C238.92,280.09 240.38,282.84 240.24,283.25 C240.11,283.66 240.48,284.00 241.06,284.00 C241.64,284.00 241.86,284.42 241.54,284.94 C241.22,285.45 241.75,286.34 242.73,286.91 ZM 390.00 237.03 C390.00,238.11 390.45,239.00 391.00,239.00 C391.55,239.00 392.00,236.76 392.00,234.01 C392.00,229.30 391.86,229.03 389.50,229.23 C387.37,229.41 387.00,229.93 387.00,232.83 C387.00,235.43 387.35,236.08 388.50,235.64 C389.52,235.25 390.00,235.69 390.00,237.03 ZM 219.19 225.06 C219.00,227.61 219.26,228.11 220.56,227.62 C221.44,227.28 222.58,227.00 223.08,227.00 C223.59,227.00 224.00,225.43 224.00,223.50 C224.00,220.80 223.60,220.02 222.25,220.08 C221.20,220.13 221.00,220.36 221.75,220.66 C223.68,221.44 223.23,222.87 221.22,222.35 C219.81,221.98 219.38,222.56 219.19,225.06 ZM 240.43 271.35 C241.66,274.04 242.51,274.89 243.24,274.16 C244.73,272.67 242.35,267.32 239.92,266.69 C238.86,266.41 238.15,266.48 238.33,266.84 C238.51,267.20 239.46,269.23 240.43,271.35 ZM 369.02 173.74 C370.96,175.55 371.18,176.22 370.15,177.24 C369.13,178.26 369.02,178.14 369.59,176.63 C370.23,174.97 370.06,174.90 368.09,175.95 C366.36,176.88 365.54,176.86 364.37,175.89 C363.05,174.79 363.06,174.55 364.49,173.75 C365.55,173.15 366.69,173.30 367.80,174.17 C369.36,175.39 369.38,175.33 368.06,173.50 C366.87,171.85 367.03,171.89 369.02,173.74 ZM 377.41 170.50 C377.96,168.65 377.90,168.63 376.65,170.23 C375.16,172.16 373.83,171.60 374.68,169.40 C375.26,167.88 377.58,167.51 378.38,168.80 C378.65,169.24 378.41,170.25 377.84,171.05 C377.03,172.19 376.94,172.07 377.41,170.50 ZM 227.00 268.19 C227.00,269.53 226.25,269.11 225.60,267.40 C225.22,266.41 224.36,266.03 223.35,266.42 C221.95,266.96 221.91,266.82 223.06,265.43 C224.28,263.96 224.50,263.97 225.70,265.60 C226.41,266.58 227.00,267.75 227.00,268.19 ZM 390.59 187.26 C390.85,187.51 389.47,188.93 387.53,190.41 C385.59,191.89 384.00,192.63 384.00,192.05 C384.00,191.47 384.37,191.00 384.81,191.00 C385.26,191.00 386.64,190.05 387.88,188.90 C389.12,187.74 390.34,187.01 390.59,187.26 ZM 345.01 298.98 C344.16,300.56 344.24,300.85 345.40,300.40 C347.08,299.75 348.38,297.00 347.00,297.00 C346.49,297.00 345.59,297.89 345.01,298.98 ZM 220.43 252.00 C220.43,253.03 220.96,253.57 221.71,253.28 C222.42,253.01 223.00,252.43 223.00,252.00 C223.00,251.57 222.42,250.99 221.71,250.72 C220.96,250.43 220.43,250.97 220.43,252.00 ZM 390.46 166.93 C390.82,167.52 391.60,168.00 392.18,168.00 C392.84,168.00 392.77,167.43 391.98,166.48 C390.61,164.82 389.38,165.19 390.46,166.93 ZM 370.56 171.10 C371.33,172.34 371.70,172.23 372.34,170.55 C372.71,169.58 372.42,169.29 371.45,169.66 C370.66,169.96 370.26,170.61 370.56,171.10 ZM 340.00 303.59 C340.00,303.78 340.67,303.68 341.50,303.36 C342.33,303.05 343.00,302.33 343.00,301.77 C343.00,301.19 342.36,301.28 341.50,302.00 C340.67,302.68 340.00,303.40 340.00,303.59 ZM 237.00 282.94 C237.00,283.52 237.45,284.00 238.00,284.00 C238.55,284.00 239.00,283.80 239.00,283.56 C239.00,283.32 238.55,282.84 238.00,282.50 C237.45,282.16 237.00,282.36 237.00,282.94 ZM 242.35 270.46 C243.02,272.22 242.44,272.53 241.46,270.93 C241.10,270.35 241.01,269.65 241.28,269.39 C241.54,269.13 242.02,269.61 242.35,270.46 ZM 199.46 149.93 C200.44,151.53 201.02,151.22 200.35,149.46 C200.02,148.61 199.54,148.13 199.28,148.39 C199.01,148.65 199.10,149.35 199.46,149.93 ZM 352.00 292.62 C352.00,293.45 352.82,292.92 354.13,291.25 C355.37,289.66 355.34,289.63 353.75,290.87 C352.79,291.63 352.00,292.41 352.00,292.62 Z" fill="#ffffff" data-index="0" style="opacity: 1;"/>
<path d="M 393.39 175.82 C393.12,175.39 393.40,174.12 394.00,173.00 C394.60,171.88 394.74,170.41 394.31,169.73 C393.88,169.05 393.51,168.27 393.48,168.00 C393.36,166.85 390.45,163.00 389.70,163.00 C389.25,163.00 389.16,163.45 389.50,164.00 C389.84,164.55 389.68,165.00 389.14,165.00 C388.61,165.00 388.01,164.53 387.82,163.95 C387.62,163.37 386.70,162.78 385.76,162.64 C384.82,162.50 383.71,162.01 383.28,161.54 C382.85,161.06 383.17,161.03 384.00,161.46 C384.83,161.88 383.96,160.87 382.09,159.20 C378.93,156.39 372.52,154.15 371.25,155.42 C370.95,155.72 369.73,154.83 368.54,153.44 C367.12,151.80 365.79,151.14 364.70,151.56 C362.17,152.53 364.45,156.31 367.06,155.48 C368.85,154.91 369.31,155.69 368.91,158.64 C368.87,158.99 369.27,159.55 369.81,159.89 C370.34,160.22 369.74,161.29 368.45,162.25 C366.21,163.93 366.13,163.93 366.27,162.07 C366.35,161.01 366.85,160.41 367.38,160.73 C367.91,161.06 367.48,160.19 366.43,158.79 C365.37,157.39 364.02,156.44 363.42,156.67 C362.81,156.90 361.74,156.40 361.04,155.55 C360.17,154.50 360.12,154.00 360.88,154.00 C363.02,154.00 361.98,150.86 359.02,148.36 C355.68,145.55 353.80,140.02 354.15,134.02 C354.27,131.99 354.20,130.15 353.99,129.73 C360.78,133.73 367.60,137.88 370.50,139.89 C373.80,142.18 378.75,145.60 381.50,147.50 C388.38,152.24 401.91,165.35 406.79,172.00 C425.68,197.72 427.43,227.12 412.01,259.67 C408.00,268.15 405.83,271.26 398.96,278.42 C394.43,283.14 390.13,287.00 389.40,287.00 C387.48,287.00 384.06,283.01 384.66,281.45 C385.03,280.48 384.34,280.23 382.06,280.52 C380.35,280.73 378.54,281.17 378.04,281.48 C377.53,281.79 376.19,281.05 375.06,279.83 C372.63,277.22 372.36,278.09 374.55,281.44 C375.59,283.02 375.76,284.03 375.05,284.47 C374.47,284.82 374.00,285.57 374.00,286.12 C374.00,286.67 374.56,286.78 375.25,286.37 C376.21,285.79 376.24,285.95 375.36,287.06 C373.99,288.79 374.09,293.49 375.50,293.53 C376.05,293.54 377.33,294.03 378.34,294.62 C380.03,295.59 379.83,295.99 376.09,299.19 C367.97,306.14 346.68,315.33 331.40,318.49 L 331.17 318.54 C324.68,319.88 323.34,320.15 323.07,319.74 C323.00,319.63 323.01,319.47 323.01,319.28 L 323.01 319.25 C323.01,318.84 326.95,316.63 331.76,314.35 C350.34,305.52 365.87,290.67 374.50,273.47 C376.70,269.09 378.84,265.35 379.26,265.16 C379.67,264.98 379.76,264.42 379.45,263.91 C379.14,263.41 379.39,263.00 380.01,263.00 C380.68,263.00 380.88,262.19 380.50,261.00 C380.12,259.81 380.32,259.00 380.99,259.00 C381.61,259.00 381.84,258.56 381.51,258.02 C381.18,257.48 381.85,253.87 383.00,250.00 C384.18,246.03 384.85,241.37 385.05,236.36 C384.92,241.18 384.41,245.48 383.51,248.41 C381.36,255.40 381.53,257.00 384.40,257.00 C387.20,257.00 388.81,253.50 389.69,245.50 C390.28,240.14 390.61,239.28 391.68,240.35 C392.05,240.72 391.60,244.28 390.67,248.26 C388.72,256.57 388.66,257.33 389.93,256.54 C390.44,256.23 391.19,256.49 391.59,257.14 C391.98,257.78 391.88,258.04 391.36,257.72 C390.83,257.40 389.76,257.53 388.96,258.02 C387.91,258.68 388.18,258.87 390.01,258.75 C391.38,258.67 393.17,257.86 394.00,256.95 C395.48,255.33 401.37,253.59 400.48,255.04 C399.82,256.09 402.57,257.00 406.43,257.00 C409.90,257.00 413.69,253.93 412.53,252.06 C412.17,251.47 412.55,250.72 413.39,250.40 C414.96,249.80 416.46,246.02 417.51,240.00 C418.23,235.88 415.19,231.61 412.33,232.70 C411.22,233.13 410.91,232.95 411.39,232.18 C411.84,231.44 411.58,231.22 410.66,231.58 C408.72,232.32 407.86,224.36 409.72,222.82 C410.42,222.23 411.00,221.27 411.00,220.68 C411.00,220.09 412.24,218.29 413.75,216.68 C416.35,213.90 416.37,213.81 414.13,214.97 C412.65,215.74 412.01,215.79 412.43,215.12 C413.20,213.86 411.37,210.00 410.00,210.00 C409.48,210.00 409.36,210.79 409.73,211.75 C410.36,213.41 410.30,213.41 408.63,211.76 C407.62,210.75 407.19,209.48 407.63,208.76 C408.21,207.78 408.03,207.79 406.80,208.78 C405.49,209.84 404.93,209.79 403.61,208.46 C401.76,206.61 401.48,205.56 403.11,206.57 C403.72,206.95 404.62,206.64 405.10,205.88 C405.82,204.73 405.97,204.73 405.98,205.86 C405.99,206.62 406.63,206.97 407.42,206.67 C409.00,206.06 413.34,209.33 412.32,210.35 C411.96,210.71 412.19,211.00 412.83,211.00 C413.91,211.00 414.48,208.31 414.06,205.19 C413.97,204.47 414.47,203.97 415.19,204.06 C417.60,204.38 419.00,204.01 419.00,203.04 C419.00,201.18 413.50,193.00 412.25,193.00 C411.56,193.00 410.02,191.89 408.84,190.53 C407.66,189.18 406.32,188.30 405.85,188.59 C405.38,188.88 405.00,188.61 405.00,187.99 C405.00,187.37 404.33,186.18 403.50,185.36 C402.67,184.53 402.00,184.14 402.00,184.49 C402.00,184.83 401.44,184.77 400.75,184.34 C400.06,183.91 398.95,183.47 398.28,183.37 C397.61,183.27 395.94,181.91 394.56,180.34 C393.19,178.78 392.05,178.04 392.03,178.69 C392.01,179.35 392.45,180.16 393.00,180.50 C394.69,181.54 394.11,182.97 392.25,182.33 C390.63,181.78 390.64,181.84 392.30,183.14 C393.98,184.45 393.99,184.78 392.50,188.36 C391.48,190.79 390.41,191.99 389.55,191.66 C388.80,191.37 387.45,191.68 386.53,192.35 C384.99,193.48 385.02,193.97 386.90,199.04 C390.40,208.44 393.60,224.45 391.09,220.00 C390.63,219.18 389.94,216.36 389.56,213.75 C388.57,206.84 385.44,198.45 383.99,198.79 C383.23,198.97 382.99,198.47 383.37,197.48 C383.71,196.60 383.06,194.08 381.93,191.87 C380.27,188.60 379.62,188.07 378.47,189.03 C376.44,190.71 373.57,187.90 375.31,185.93 C376.29,184.83 376.21,184.81 374.87,185.82 C373.25,187.04 372.34,186.29 372.21,183.61 C372.19,183.12 371.57,182.33 370.84,181.84 C369.76,181.14 369.85,180.76 371.25,179.93 C372.21,179.36 373.00,178.45 373.00,177.90 C373.00,177.36 371.93,177.71 370.62,178.70 L 368.24 180.49 L 371.25 184.86 C373.04,187.46 374.90,190.95 376.64,194.85 C371.99,185.55 364.55,175.94 354.82,166.68 C346.99,159.23 344.66,156.87 340.25,153.85 C341.69,154.77 342.64,155.41 342.93,155.64 C344.32,156.78 352.82,164.26 360.09,170.76 C362.29,172.72 363.10,172.91 365.45,172.02 C367.90,171.09 368.06,170.77 366.86,169.23 C365.65,167.69 365.68,167.64 367.13,168.78 C368.48,169.83 368.87,169.78 369.35,168.53 C369.67,167.69 370.43,167.00 371.04,167.00 C371.65,167.00 371.41,167.73 370.51,168.63 C369.00,170.14 369.09,170.48 371.63,173.13 C374.58,176.21 376.36,177.16 373.73,174.25 C372.55,172.95 372.40,172.03 373.16,170.68 C373.93,169.30 373.74,168.37 372.38,166.87 C370.83,165.15 370.78,164.74 372.04,163.87 C373.12,163.13 372.89,163.04 371.12,163.54 C369.51,164.00 368.97,163.86 369.43,163.11 C370.43,161.49 373.97,161.75 374.64,163.49 C374.95,164.32 375.58,164.76 376.04,164.48 C376.49,164.20 377.14,164.42 377.49,164.98 C377.84,165.54 377.30,166.01 376.31,166.02 C375.17,166.04 375.77,166.67 377.90,167.72 C379.77,168.64 380.79,169.57 380.15,169.78 C377.93,170.52 379.03,171.72 381.50,171.24 C382.88,170.98 384.00,170.34 384.00,169.82 C384.00,169.31 383.48,169.20 382.85,169.60 C382.12,170.04 381.96,169.87 382.41,169.14 C382.81,168.49 383.63,168.27 384.24,168.65 C384.91,169.07 385.13,168.77 384.78,167.88 C384.43,166.95 384.86,166.43 386.00,166.43 C387.57,166.43 387.61,166.66 386.38,168.54 C385.62,169.71 385.33,171.00 385.75,171.41 C386.16,171.83 386.05,172.08 385.50,171.96 C382.82,171.42 382.90,172.21 385.73,174.30 C388.61,176.43 394.48,177.59 393.39,175.82 ZM 232.66 269.55 C232.44,268.99 231.44,265.95 230.30,262.38 C233.10,270.86 235.41,275.31 240.13,281.56 C242.26,284.38 244.00,287.17 244.00,287.77 C244.00,289.04 253.68,299.02 259.50,303.76 C261.70,305.55 268.43,309.51 274.47,312.55 C280.50,315.60 285.63,318.30 285.88,318.55 C286.13,318.80 284.35,318.98 281.92,318.96 C272.49,318.88 248.85,309.17 234.33,299.41 C215.27,286.61 197.91,261.91 191.75,238.84 C190.62,234.62 189.88,228.15 189.55,221.04 C190.09,226.58 191.14,231.13 192.75,233.68 C194.01,235.66 200.00,238.67 200.00,237.33 C200.00,237.01 200.72,237.35 201.60,238.08 C202.48,238.81 203.84,239.51 204.62,239.62 C205.40,239.74 206.92,240.88 207.99,242.16 C209.06,243.45 209.95,244.03 209.97,243.46 C209.99,242.89 210.90,242.43 212.00,242.43 C213.94,242.43 214.22,243.08 214.26,247.72 C214.27,248.95 214.66,249.71 215.14,249.41 C215.61,249.12 216.00,249.74 216.00,250.79 C216.00,252.98 219.38,257.28 220.35,256.32 C220.71,255.96 220.85,256.99 220.66,258.62 C220.33,261.43 222.13,264.53 223.37,263.30 C223.69,262.98 224.62,263.27 225.43,263.94 C226.25,264.62 227.38,264.89 227.94,264.53 C228.58,264.14 228.72,264.55 228.32,265.61 C227.90,266.70 228.05,267.09 228.73,266.67 C229.97,265.90 231.29,268.71 230.38,270.20 C229.98,270.83 229.43,270.71 228.89,269.86 C228.42,269.11 228.02,268.99 228.02,269.58 C227.99,271.30 228.96,271.82 231.11,271.26 C232.21,270.97 232.91,270.20 232.66,269.55 ZM 342.00 58.40 C342.00,58.10 341.12,58.14 340.06,58.48 C338.32,59.03 338.20,58.78 338.94,56.21 C339.39,54.62 340.92,52.18 342.32,50.77 C345.01,48.08 345.03,45.10 342.39,42.91 C341.91,42.51 341.49,41.83 341.24,41.12 C341.61,41.96 342.36,42.84 343.50,43.59 C346.76,45.73 346.80,50.17 343.60,55.45 C341.79,58.44 341.42,59.97 342.08,61.70 C343.30,64.93 341.39,64.69 335.67,60.91 C330.43,57.43 328.23,54.66 323.57,45.70 C321.81,42.29 319.26,38.94 317.93,38.26 C314.67,36.61 307.71,36.68 303.58,38.40 C296.07,41.54 289.16,50.18 286.97,58.82 C287.96,53.90 290.44,49.34 294.43,45.00 C296.19,43.08 297.55,40.94 297.45,40.25 C297.34,39.56 297.19,38.58 297.12,38.06 C296.94,36.71 291.93,31.53 289.00,29.69 C285.71,27.61 281.55,28.17 278.23,31.12 C277.76,31.54 277.34,31.92 276.95,32.29 C280.38,28.44 284.36,25.50 289.50,22.83 C300.15,17.30 305.80,15.95 316.39,16.44 C326.06,16.89 332.42,18.38 339.31,22.27 C334.04,19.60 331.09,21.17 324.02,27.23 C323.21,27.93 322.19,28.39 321.77,28.25 C321.35,28.11 321.00,28.48 321.00,29.06 C321.00,29.64 320.47,29.79 319.83,29.39 C319.04,28.91 318.87,29.22 319.30,30.34 C319.65,31.25 319.52,32.00 319.00,32.00 C315.77,32.00 329.94,56.77 333.37,57.12 C333.99,57.18 335.30,57.15 336.27,57.05 C337.25,56.95 337.98,57.23 337.90,57.68 C337.44,60.36 338.06,61.04 340.00,60.00 C341.10,59.41 342.00,58.69 342.00,58.40 ZM 311.06 317.49 C305.32,321.68 302.36,320.96 293.09,313.14 C290.57,311.01 288.09,308.29 285.75,305.12 C287.38,306.91 288.79,307.66 289.82,307.13 C290.74,306.66 292.06,306.47 292.75,306.72 C293.44,306.96 294.01,306.57 294.02,305.83 C294.03,304.72 294.17,304.72 294.88,305.84 C295.34,306.57 295.90,307.09 296.11,306.99 C296.33,306.90 297.74,307.38 299.25,308.07 C301.57,309.13 302.27,309.07 303.82,307.66 C304.83,306.75 306.52,306.00 307.58,305.99 C308.64,305.99 310.79,305.32 312.36,304.49 C315.86,302.67 317.67,302.61 319.43,304.25 C320.55,305.29 320.43,305.98 318.74,308.37 L 316.70 311.23 L 318.75 310.13 C318.92,310.04 319.11,309.91 319.33,309.74 C316.51,312.87 313.64,315.60 311.06,317.49 ZM 220.54 183.94 C220.90,183.36 222.16,182.96 223.35,183.05 C226.79,183.32 228.15,183.06 227.63,182.21 C227.37,181.78 227.96,181.43 228.96,181.43 C230.12,181.43 230.58,181.94 230.23,182.85 C229.80,183.97 230.07,184.06 231.48,183.27 C232.47,182.72 234.12,182.48 235.14,182.75 C238.78,183.70 236.91,182.08 230.76,178.96 C226.96,177.03 223.59,174.95 220.49,172.58 C226.33,176.86 237.96,183.00 240.42,183.00 C242.65,183.00 242.45,183.62 238.41,189.12 C234.55,194.39 234.09,194.64 232.05,192.75 C230.97,191.74 230.86,191.76 231.47,192.85 C232.11,193.96 231.84,193.98 229.92,192.96 C228.21,192.04 227.50,192.01 227.21,192.86 C226.48,195.05 224.39,193.96 219.37,188.75 C205.61,174.49 194.88,151.05 195.04,135.64 C195.09,131.58 195.14,131.64 197.38,138.50 C199.58,145.24 202.65,151.59 206.37,157.22 C205.11,155.37 203.85,153.39 202.59,151.27 C198.66,144.66 198.30,144.31 198.41,147.27 C198.48,149.05 199.36,152.01 200.35,153.86 C201.35,155.71 201.66,156.91 201.05,156.53 C196.85,153.93 207.06,174.31 213.62,181.59 C216.40,184.69 219.44,185.72 220.54,183.94 ZM 372.39 225.82 C372.79,228.81 373.00,231.67 373.00,234.23 C373.00,241.53 370.91,254.90 368.90,260.50 C366.62,266.83 366.12,269.04 367.11,268.43 C367.65,268.10 368.72,268.35 369.49,268.99 C370.43,269.77 371.04,269.54 372.12,267.63 C369.69,272.76 366.71,278.00 365.93,278.00 C365.35,278.00 365.16,278.45 365.50,279.00 C366.32,280.33 355.50,293.50 348.40,299.83 C342.09,305.45 334.52,309.86 333.30,308.62 C332.86,308.16 334.52,306.18 337.00,304.20 C344.39,298.31 354.71,287.36 358.60,281.28 C369.61,264.07 374.29,244.57 372.39,225.82 ZM 304.96 131.45 C296.17,125.36 290.22,120.35 284.26,114.33 C277.67,107.67 274.07,103.08 271.65,98.25 C267.45,89.84 265.69,85.24 264.99,78.33 C265.47,80.90 266.15,82.38 266.93,82.21 C267.71,82.04 268.02,82.50 267.70,83.34 C266.16,87.35 274.23,100.62 277.45,99.38 C279.29,98.68 281.00,102.00 281.00,106.26 C281.00,109.14 282.18,110.89 288.75,117.70 C293.50,122.63 298.03,126.57 304.96,131.45 ZM 238.94 213.58 C240.08,208.76 241.73,204.14 243.97,199.31 L 246.84 193.12 L 244.38 194.24 C242.77,194.97 242.13,195.89 242.51,196.90 C242.84,197.75 242.78,198.12 242.39,197.73 C242.00,197.33 241.05,197.91 240.28,199.01 C239.51,200.10 238.30,201.00 237.58,201.00 C236.64,201.00 235.66,202.45 234.74,204.87 C234.94,204.19 235.15,203.50 235.37,202.81 C236.57,199.06 238.74,194.74 241.34,190.54 C241.26,190.70 241.18,190.85 241.11,191.00 L 239.89 193.50 L 241.85 191.25 C242.94,190.01 244.34,189.00 244.97,189.00 C245.60,189.00 245.80,188.49 245.42,187.87 C244.99,187.18 245.26,186.94 246.11,187.24 C246.87,187.52 248.61,186.79 249.97,185.62 C252.26,183.65 252.34,183.65 251.02,185.50 C250.24,186.60 251.69,185.51 254.25,183.09 C255.64,181.78 256.70,180.81 257.58,180.24 C256.60,180.96 255.42,182.23 253.82,184.02 C247.86,190.68 241.79,202.72 238.96,213.50 C238.95,213.52 238.94,213.55 238.94,213.58 ZM 346.73 301.00 C347.57,301.00 354.32,294.22 356.95,290.73 C358.12,289.17 358.07,289.04 356.47,289.65 C354.98,290.22 354.79,290.00 355.39,288.42 C355.80,287.37 352.16,290.33 347.31,295.00 C342.47,299.67 338.84,303.65 339.26,303.84 C339.67,304.02 339.69,304.69 339.31,305.34 C338.92,305.98 340.24,305.26 342.23,303.75 C344.23,302.24 346.25,301.00 346.73,301.00 ZM 268.51 204.96 C268.71,208.97 268.54,212.81 267.93,215.79 C266.88,220.87 266.94,221.17 269.37,223.08 C271.01,224.37 271.70,225.68 271.33,226.79 C269.84,231.22 274.12,223.73 276.55,217.65 C278.06,213.88 279.98,210.10 282.32,206.31 C279.83,210.51 277.63,215.20 274.92,221.68 C269.32,235.11 266.18,246.73 265.52,257.60 C265.79,251.77 266.75,245.83 268.38,239.74 C271.34,228.71 271.35,228.67 270.06,229.46 C269.54,229.78 268.13,229.02 266.91,227.77 C265.70,226.52 265.00,226.02 265.36,226.66 C265.72,227.31 265.54,227.99 264.96,228.18 C264.24,228.42 263.19,230.98 262.15,234.58 C263.31,230.14 264.63,225.90 265.92,222.62 C267.81,217.80 268.65,211.36 268.51,204.96 ZM 242.73 286.91 C241.75,286.34 241.22,285.45 241.54,284.94 C241.86,284.42 241.64,284.00 241.06,284.00 C240.48,284.00 240.11,283.66 240.24,283.25 C240.38,282.84 238.92,280.09 237.00,277.14 C233.81,272.22 233.48,271.98 232.93,274.14 C231.97,277.99 236.01,285.59 238.51,284.64 C239.13,284.40 240.18,285.05 240.83,286.10 C241.48,287.14 242.58,287.99 243.26,287.97 C243.94,287.95 243.70,287.48 242.73,286.91 ZM 390.00 237.03 C390.00,235.69 389.52,235.25 388.50,235.64 C387.35,236.08 387.00,235.43 387.00,232.83 C387.00,229.93 387.37,229.41 389.50,229.23 C391.86,229.03 392.00,229.30 392.00,234.01 C392.00,236.76 391.55,239.00 391.00,239.00 C390.45,239.00 390.00,238.11 390.00,237.03 ZM 219.19 225.06 C219.38,222.56 219.81,221.98 221.22,222.35 C223.23,222.87 223.68,221.44 221.75,220.66 C221.00,220.36 221.20,220.13 222.25,220.08 C223.60,220.02 224.00,220.80 224.00,223.50 C224.00,225.43 223.59,227.00 223.08,227.00 C222.58,227.00 221.44,227.28 220.56,227.62 C219.26,228.11 219.00,227.61 219.19,225.06 ZM 240.43 271.35 C239.46,269.23 238.51,267.20 238.33,266.84 C238.15,266.48 238.86,266.41 239.92,266.69 C242.35,267.32 244.73,272.67 243.24,274.16 C242.51,274.89 241.66,274.04 240.43,271.35 ZM 369.02 173.74 C367.03,171.89 366.87,171.85 368.06,173.50 C369.38,175.33 369.36,175.39 367.80,174.17 C366.69,173.30 365.55,173.15 364.49,173.75 C363.06,174.55 363.05,174.79 364.37,175.89 C365.54,176.86 366.36,176.88 368.09,175.95 C370.06,174.90 370.23,174.97 369.59,176.63 C369.02,178.14 369.13,178.26 370.15,177.24 C371.18,176.22 370.96,175.55 369.02,173.74 ZM 284.00 312.00 C286.73,314.13 286.02,314.40 281.75,312.84 C280.24,312.29 279.00,311.42 279.00,310.92 C279.00,309.41 281.33,309.92 284.00,312.00 ZM 377.41 170.50 C376.94,172.07 377.03,172.19 377.84,171.05 C378.41,170.25 378.65,169.24 378.38,168.80 C377.58,167.51 375.26,167.88 374.68,169.40 C373.83,171.60 375.16,172.16 376.65,170.23 C377.90,168.63 377.96,168.65 377.41,170.50 ZM 400.25 263.34 C400.94,263.62 401.61,263.88 401.75,263.92 C401.89,263.96 402.00,263.10 402.00,262.00 C402.00,260.89 401.33,260.00 400.50,260.00 C398.69,260.00 398.49,262.63 400.25,263.34 ZM 275.39 303.84 C275.17,303.60 274.94,303.36 274.72,303.11 C266.60,294.13 261.39,283.39 259.30,271.59 C259.84,274.48 260.61,277.46 261.61,280.68 C262.65,283.99 263.68,285.68 264.48,285.37 C265.17,285.10 265.98,285.81 266.28,286.94 C266.57,288.08 266.41,288.75 265.91,288.44 C264.12,287.34 265.06,289.63 268.58,295.02 C270.64,298.17 273.25,301.49 275.39,303.84 ZM 224.67 281.33 C225.93,282.59 227.00,282.00 227.00,280.03 C227.00,278.69 226.52,278.25 225.50,278.64 C223.90,279.25 223.59,280.25 224.67,281.33 ZM 227.00 268.19 C227.00,267.75 226.41,266.58 225.70,265.60 C224.50,263.97 224.28,263.96 223.06,265.43 C221.91,266.82 221.95,266.96 223.35,266.42 C224.36,266.03 225.22,266.41 225.60,267.40 C226.25,269.11 227.00,269.53 227.00,268.19 ZM 390.59 187.26 C390.34,187.01 389.12,187.74 387.88,188.90 C386.64,190.05 385.26,191.00 384.81,191.00 C384.37,191.00 384.00,191.47 384.00,192.05 C384.00,192.63 385.59,191.89 387.53,190.41 C389.47,188.93 390.85,187.51 390.59,187.26 ZM 345.01 298.98 C345.59,297.89 346.49,297.00 347.00,297.00 C348.38,297.00 347.08,299.75 345.40,300.40 C344.24,300.85 344.16,300.56 345.01,298.98 ZM 220.43 252.00 C220.43,250.97 220.96,250.43 221.71,250.72 C222.42,250.99 223.00,251.57 223.00,252.00 C223.00,252.43 222.42,253.01 221.71,253.28 C220.96,253.57 220.43,253.03 220.43,252.00 ZM 326.00 273.05 C326.00,274.85 324.20,274.87 323.73,273.06 C323.38,271.72 323.64,271.31 324.61,271.68 C325.38,271.97 326.00,272.59 326.00,273.05 ZM 264.52 58.09 L 264.50 53.50 L 269.00 44.50 C269.83,42.85 270.65,41.31 271.50,39.88 C270.77,41.25 269.93,42.92 268.89,45.00 C265.84,51.11 264.94,53.37 264.52,58.09 ZM 248.28 286.00 C249.70,287.74 251.34,289.57 253.36,291.70 C257.30,295.87 263.03,301.06 266.93,304.06 C259.71,298.76 253.44,292.68 248.28,286.00 ZM 232.11 215.35 C231.14,220.95 230.53,227.46 230.56,233.50 C230.58,237.85 230.86,241.94 231.43,245.91 C229.80,235.73 230.03,225.82 232.11,215.35 ZM 221.00 224.44 C221.00,225.30 221.45,226.00 222.00,226.00 C222.55,226.00 223.00,225.58 223.00,225.06 C223.00,224.54 222.55,223.84 222.00,223.50 C221.45,223.16 221.00,223.58 221.00,224.44 ZM 247.53 276.14 C244.77,271.24 242.40,266.36 241.49,263.39 C240.60,260.49 239.86,257.90 239.27,255.47 C241.17,262.48 244.05,269.63 247.53,276.14 ZM 390.46 166.93 C389.38,165.19 390.61,164.82 391.98,166.48 C392.77,167.43 392.84,168.00 392.18,168.00 C391.60,168.00 390.82,167.52 390.46,166.93 ZM 234.32 258.47 C235.79,263.09 237.72,267.78 240.18,272.80 C241.50,275.51 242.67,277.73 243.87,279.73 C240.39,274.26 237.60,268.47 235.58,262.44 C235.13,261.11 234.71,259.79 234.32,258.47 ZM 370.56 171.10 C370.26,170.61 370.66,169.96 371.45,169.66 C372.42,169.29 372.71,169.58 372.34,170.55 C371.70,172.23 371.33,172.34 370.56,171.10 ZM 340.00 303.59 C340.00,303.40 340.67,302.68 341.50,302.00 C342.36,301.28 343.00,301.19 343.00,301.77 C343.00,302.33 342.33,303.05 341.50,303.36 C340.67,303.68 340.00,303.78 340.00,303.59 ZM 360.00 283.00 C360.00,283.55 360.45,284.00 361.00,284.00 C361.55,284.00 362.00,283.55 362.00,283.00 C362.00,282.45 361.55,282.00 361.00,282.00 C360.45,282.00 360.00,282.45 360.00,283.00 ZM 334.10 286.58 C333.32,289.54 331.29,293.50 328.60,297.65 C331.06,293.48 333.06,289.20 334.60,284.77 C334.40,285.49 334.23,286.12 334.10,286.58 ZM 237.00 282.94 C237.00,282.36 237.45,282.16 238.00,282.50 C238.55,282.84 239.00,283.32 239.00,283.56 C239.00,283.80 238.55,284.00 238.00,284.00 C237.45,284.00 237.00,283.52 237.00,282.94 ZM 242.35 270.46 C242.02,269.61 241.54,269.13 241.28,269.39 C241.01,269.65 241.10,270.35 241.46,270.93 C242.44,272.53 243.02,272.22 242.35,270.46 ZM 199.46 149.93 C199.10,149.35 199.01,148.65 199.28,148.39 C199.54,148.13 200.02,148.61 200.35,149.46 C201.02,151.22 200.44,151.53 199.46,149.93 ZM 352.00 292.62 C352.00,292.41 352.79,291.63 353.75,290.87 C355.34,289.63 355.37,289.66 354.13,291.25 C352.82,292.92 352.00,293.45 352.00,292.62 ZM 272.37 276.50 C271.86,274.63 271.50,271.00 271.30,266.92 C271.73,272.02 272.53,277.03 273.63,280.78 C273.17,279.36 272.75,277.94 272.37,276.50 ZM 247.89 181.34 C252.34,175.92 256.81,172.00 259.43,172.00 C257.27,172.00 252.28,176.30 247.89,181.34 ZM 273.26 252.11 C273.49,254.47 273.92,256.81 274.53,259.10 C273.89,256.79 273.42,254.41 273.13,252.00 L 272.58 247.38 C272.80,247.96 273.01,249.48 273.26,252.11 ZM 337.93 248.96 C337.77,247.55 337.58,246.13 337.37,244.68 C336.86,241.28 336.44,240.55 336.06,242.60 C336.18,241.85 336.29,241.38 336.38,241.29 C336.96,240.70 337.56,244.03 337.93,248.96 ZM 344.45 25.54 C345.19,26.05 345.93,26.58 346.70,27.15 C350.27,29.79 353.61,33.20 356.00,36.49 C353.46,33.04 349.80,29.42 345.67,26.41 C345.25,26.11 344.85,25.81 344.45,25.54 ZM 191.83 185.64 C191.11,188.79 190.52,192.25 190.08,195.84 C190.40,192.66 190.83,189.81 191.37,187.50 C191.51,186.88 191.67,186.26 191.83,185.64 ZM 339.34 296.76 C337.25,299.87 334.93,302.66 332.40,305.00 C334.35,303.19 337.37,299.60 339.34,296.76 ZM 341.02 39.55 C341.23,38.02 342.89,37.58 344.44,38.08 C344.16,38.03 343.85,38.00 343.52,38.00 C342.05,38.00 341.21,38.64 341.02,39.55 ZM 195.23 175.59 C196.17,173.42 197.02,172.00 197.51,172.00 C197.26,172.00 196.24,173.60 195.23,175.59 ZM 342.74 123.25 C339.44,121.46 336.64,120.00 336.38,120.00 C336.00,120.00 334.21,118.88 332.41,117.50 C334.21,118.88 336.02,120.00 336.43,120.00 C336.79,120.00 339.25,121.30 342.74,123.25 ZM 348.87 274.26 C350.76,266.03 351.27,257.51 350.12,249.96 C351.30,257.67 350.77,266.12 348.87,274.26 ZM 289.61 196.08 C290.88,194.50 292.23,192.92 293.65,191.32 C295.31,189.46 296.74,187.93 298.02,186.73 C296.64,188.04 295.08,189.73 293.23,191.83 C291.91,193.33 290.71,194.74 289.61,196.08 ZM 271.97 247.81 L 271.56 250.25 C271.51,250.55 271.47,250.86 271.42,251.17 C271.55,249.81 271.71,248.71 271.91,248.00 C271.93,247.93 271.95,247.87 271.97,247.81 ZM 287.51 71.68 C288.40,75.02 289.77,78.59 291.56,82.11 C289.70,78.45 288.35,74.98 287.51,71.68 ZM 274.55 283.52 C275.43,285.89 276.33,288.14 277.24,290.25 C276.27,288.07 275.37,285.82 274.55,283.52 ZM 336.66 277.65 C336.97,276.30 337.24,274.94 337.48,273.57 C337.25,275.14 336.97,276.52 336.66,277.65 ZM 383.13 214.32 C383.62,216.57 384.02,219.00 384.33,221.51 C384.02,219.11 383.62,216.70 383.13,214.32 ZM 255.90 288.99 C258.11,291.74 262.20,295.98 266.10,299.69 C262.20,295.98 258.11,291.75 255.88,288.99 C255.53,288.56 255.17,288.09 254.80,287.59 C255.16,288.06 255.53,288.53 255.90,288.99 ZM 237.11 226.01 C237.18,224.88 237.28,223.77 237.40,222.68 C237.28,223.76 237.19,224.88 237.11,226.01 ZM 279.08 307.00 C279.07,307.00 279.07,307.00 279.06,307.00 C278.99,307.00 278.89,306.96 278.77,306.89 C278.89,306.95 278.99,306.99 279.08,307.00 Z" fill="#ffffff" data-index="1"/>
<path d="M 237.97 196.57 C239.70,192.88 241.92,188.83 243.22,187.25 C243.95,186.35 243.84,186.00 242.81,186.00 C242.03,186.00 240.01,187.96 238.32,190.35 C235.91,193.76 234.46,194.83 231.56,195.30 C226.34,196.14 223.93,194.92 218.82,188.83 C201.48,168.16 192.97,145.85 194.46,125.00 C194.84,119.78 195.59,113.25 196.14,110.50 C197.47,103.80 202.59,90.94 205.50,87.00 L 207.85 83.81 L 207.29 93.23 C206.65,103.88 207.25,106.50 213.02,118.50 C215.14,122.90 217.13,127.75 217.46,129.27 C217.92,131.45 219.29,132.63 223.78,134.73 C226.92,136.21 231.49,138.67 233.93,140.20 C238.36,142.98 252.13,147.81 261.50,149.88 C265.92,150.85 270.73,151.45 290.50,153.50 C293.25,153.79 296.85,154.27 298.50,154.57 C300.15,154.86 303.52,155.36 306.00,155.66 C311.92,156.38 323.97,161.19 329.66,165.11 C332.15,166.83 336.10,170.19 338.43,172.59 L 342.67 176.95 L 345.25 174.26 C339.61,180.34 332.31,193.37 331.81,199.88 C331.68,201.59 331.28,203.00 330.93,203.00 C330.57,203.00 328.63,200.51 326.61,197.47 C322.24,190.89 308.09,176.48 305.05,175.52 C302.54,174.72 298.77,177.31 291.73,184.66 C286.63,189.98 279.00,199.89 279.00,201.18 C279.00,203.23 277.19,201.71 276.70,199.25 C275.01,190.83 263.07,172.00 259.43,172.00 C257.27,172.00 252.28,176.30 247.89,181.34 C245.23,184.40 242.79,187.73 241.34,190.54 C240.10,192.55 238.95,194.58 237.97,196.57 ZM 334.10 286.58 C334.23,286.12 334.40,285.49 334.60,284.77 C335.41,282.44 336.09,280.07 336.66,277.65 C336.97,276.52 337.25,275.14 337.48,273.57 C338.79,265.93 338.92,257.80 337.93,248.96 C337.56,244.03 336.96,240.70 336.38,241.29 C336.29,241.38 336.18,241.85 336.06,242.60 C335.84,243.81 335.63,245.98 335.42,249.13 C334.20,267.64 326.07,280.33 309.91,288.96 L 304.33 291.94 L 297.77 288.46 C286.42,282.44 278.00,271.64 274.53,259.10 C273.92,256.81 273.49,254.47 273.26,252.11 C273.01,249.48 272.80,247.96 272.58,247.38 L 272.35 245.50 L 271.97 247.81 C271.95,247.87 271.93,247.93 271.91,248.00 C271.71,248.71 271.55,249.81 271.42,251.17 C270.83,255.49 270.83,261.26 271.30,266.92 C271.46,270.06 271.71,272.94 272.04,274.95 C271.97,274.62 271.90,274.28 271.83,273.95 C270.76,268.76 270.30,268.00 268.30,268.00 C266.65,268.00 266.06,268.51 266.00,270.05 C265.49,265.94 265.33,261.80 265.52,257.60 C266.18,246.73 269.32,235.11 274.92,221.68 C277.63,215.20 279.83,210.51 282.32,206.31 C284.41,202.92 286.84,199.51 289.61,196.08 L 289.61 196.08 C290.71,194.74 291.91,193.33 293.23,191.83 C295.07,189.73 296.64,188.04 298.01,186.73 L 298.02 186.73 C303.25,181.79 305.76,182.35 310.68,187.15 C320.67,196.88 329.50,210.62 335.00,225.00 C336.79,229.68 338.58,234.18 338.98,235.01 C342.10,241.41 343.37,249.23 343.38,262.00 C343.39,274.68 343.20,276.08 340.11,285.00 C338.94,288.39 337.90,291.16 336.83,293.67 C340.41,284.38 337.71,281.96 332.72,290.29 C333.34,288.94 333.81,287.69 334.10,286.58 ZM 339.71 296.21 C343.89,289.96 347.03,282.25 348.87,274.26 L 348.87 274.25 C350.77,266.12 351.30,257.67 350.12,249.96 C348.93,242.21 347.47,236.98 343.15,225.00 C340.36,217.24 338.43,203.39 339.90,201.62 C340.52,200.87 340.78,199.59 340.47,198.78 C339.31,195.77 347.52,178.00 350.07,178.00 C351.67,178.00 361.47,192.10 365.02,199.50 C368.42,206.61 371.21,216.82 372.39,225.82 C374.29,244.57 369.61,264.07 358.60,281.28 C354.71,287.36 344.39,298.31 337.00,304.20 C334.52,306.18 332.86,308.16 333.30,308.62 C333.56,308.88 334.09,308.89 334.84,308.69 C331.24,310.33 328.54,310.87 327.82,309.74 C326.62,307.86 326.76,307.54 330.10,304.57 C331.29,303.51 332.85,301.43 334.14,299.30 C333.09,301.28 331.91,303.27 330.51,305.50 C328.63,308.49 328.64,308.49 332.40,305.00 C334.35,303.19 337.37,299.60 339.34,296.76 C339.47,296.57 339.59,296.39 339.71,296.21 ZM 277.00 309.23 C277.00,308.81 275.92,307.80 274.60,306.98 C272.96,305.97 269.61,303.05 266.10,299.69 L 266.06 299.66 C262.18,295.96 258.10,291.74 255.90,288.99 C255.53,288.53 255.16,288.06 254.80,287.59 C252.53,284.53 249.88,280.33 247.53,276.14 C244.05,269.63 241.17,262.48 239.27,255.47 C237.46,248.12 236.88,242.21 236.87,233.50 C236.87,230.88 236.94,228.39 237.11,226.01 C237.19,224.88 237.28,223.76 237.40,222.68 C237.73,219.51 238.24,216.51 238.94,213.58 C238.94,213.55 238.95,213.52 238.96,213.50 C241.79,202.72 247.86,190.68 253.82,184.02 C255.42,182.23 256.60,180.96 257.58,180.24 C260.13,178.58 261.23,180.17 264.41,186.01 C266.62,190.08 268.15,197.77 268.51,204.96 C268.65,211.36 267.81,217.80 265.92,222.62 C264.63,225.90 263.31,230.14 262.15,234.58 C260.51,240.21 258.88,248.39 258.45,254.24 C258.00,260.56 258.23,265.92 259.30,271.59 C261.39,283.39 266.60,294.13 274.72,303.11 C274.94,303.36 275.17,303.60 275.39,303.84 C276.83,305.42 278.06,306.55 278.77,306.89 C278.89,306.96 278.99,307.00 279.06,307.00 C279.07,307.00 279.07,307.00 279.08,307.00 C279.10,307.00 279.12,307.00 279.14,307.00 C279.51,307.00 278.04,303.63 275.80,299.23 C278.03,303.59 279.58,307.09 279.35,307.31 C279.10,307.56 280.60,309.17 282.68,310.88 C283.15,311.28 283.57,311.63 283.92,311.94 C281.29,309.91 279.00,309.42 279.00,310.92 C279.00,311.08 279.13,311.28 279.36,311.50 C279.27,311.46 279.19,311.42 279.10,311.38 C278.15,310.93 277.18,310.44 276.19,309.90 C276.78,310.02 277.00,309.77 277.00,309.23 ZM 240.42 183.00 C237.96,183.00 226.33,176.86 220.49,172.58 C215.22,168.54 210.75,163.66 206.37,157.22 C202.65,151.59 199.58,145.24 197.38,138.50 C195.14,131.64 195.09,131.58 195.04,135.64 C194.88,151.05 205.61,174.49 219.37,188.75 C224.39,193.96 226.48,195.05 227.21,192.86 C227.50,192.01 228.21,192.04 229.92,192.96 C231.84,193.98 232.11,193.96 231.47,192.85 C230.86,191.76 230.97,191.74 232.05,192.75 C234.09,194.64 234.55,194.39 238.41,189.12 C242.45,183.62 242.65,183.00 240.42,183.00 ZM 248.28 286.00 C248.89,286.78 249.51,287.56 250.14,288.32 C247.71,285.52 245.56,282.71 243.83,280.00 C241.91,276.98 239.64,273.93 238.79,273.23 C235.71,270.70 237.06,277.27 240.61,282.13 C241.71,283.63 242.68,285.12 243.30,286.22 C242.60,285.01 241.44,283.29 240.13,281.56 C235.41,275.31 233.10,270.86 230.30,262.38 C230.09,261.74 229.88,261.09 229.67,260.43 C227.62,253.98 226.19,251.49 222.02,247.08 C219.20,244.10 215.98,240.27 214.86,238.58 C213.74,236.89 215.69,238.54 219.19,242.25 C222.69,245.96 225.81,249.00 226.13,249.00 C226.44,249.00 226.33,246.66 225.88,243.80 C225.67,242.48 225.58,240.18 225.59,237.37 C225.60,237.39 225.60,237.40 225.61,237.42 C226.46,239.65 228.90,238.74 229.51,235.95 C230.32,232.29 230.40,219.06 229.62,218.29 C229.28,217.95 228.99,218.75 228.98,220.08 C228.97,221.94 228.76,222.16 228.05,221.05 C227.33,219.91 227.03,220.12 226.63,222.05 C226.36,223.38 226.11,225.26 225.90,227.26 C226.31,219.68 227.05,211.98 227.83,209.40 C228.66,206.68 228.60,206.23 223.46,202.29 C229.72,206.90 232.87,207.92 234.50,205.52 C233.60,208.06 232.77,211.48 232.11,215.35 C230.03,225.82 229.80,235.73 231.43,245.91 C231.75,248.13 232.16,250.32 232.67,252.50 C232.40,252.19 231.99,252.00 231.53,252.00 C230.58,252.00 230.26,251.38 230.63,250.25 C231.05,248.94 230.95,248.84 230.23,249.84 C229.71,250.57 228.99,251.13 228.64,251.09 C228.29,251.04 228.00,251.23 228.00,251.50 L 228.00 253.06 C228.00,253.64 228.52,253.80 229.15,253.40 C229.92,252.93 230.04,253.13 229.50,254.00 C229.00,254.82 229.36,255.79 230.47,256.60 C231.71,257.51 232.09,258.73 231.73,260.64 C231.12,263.82 231.81,266.23 233.10,265.44 C233.60,265.13 234.00,265.34 234.00,265.91 C234.00,266.47 234.61,266.70 235.35,266.42 C236.45,266.00 236.36,264.87 234.85,260.30 C234.23,258.41 233.68,256.51 233.34,255.15 C233.64,256.25 233.97,257.36 234.32,258.47 C234.71,259.79 235.13,261.11 235.58,262.44 C237.60,268.47 240.39,274.26 243.87,279.73 C245.21,281.96 246.60,283.93 248.28,286.00 ZM 377.62 254.69 C377.20,256.58 377.43,256.77 379.29,256.09 C380.51,255.64 381.57,254.24 382.43,252.02 C381.64,255.06 381.24,257.57 381.51,258.02 C381.84,258.56 381.61,259.00 380.99,259.00 C380.32,259.00 380.12,259.81 380.50,261.00 C380.88,262.19 380.68,263.00 380.01,263.00 C379.39,263.00 379.14,263.41 379.45,263.91 C379.76,264.42 379.67,264.98 379.26,265.16 C378.84,265.35 376.70,269.09 374.50,273.47 C365.87,290.67 350.34,305.52 331.76,314.35 C326.95,316.63 323.01,318.84 323.01,319.25 L 323.01 319.28 C323.01,319.30 323.01,319.32 323.01,319.34 C322.95,319.28 322.91,319.22 322.90,319.16 C322.83,318.70 324.25,317.99 331.94,314.19 C332.28,314.02 332.63,313.85 333.00,313.67 C342.61,308.92 355.16,299.68 359.20,294.39 L 361.40 291.50 L 359.20 293.40 C357.63,294.77 357.00,294.93 357.00,293.96 C357.00,293.17 355.64,293.89 353.75,295.66 C350.81,298.43 347.43,301.07 344.11,303.34 C345.55,302.26 347.00,301.08 348.40,299.83 C355.50,293.50 366.32,280.33 365.50,279.00 C365.16,278.45 365.35,278.00 365.93,278.00 C366.71,278.00 369.69,272.76 372.12,267.63 C372.34,267.26 372.57,266.83 372.82,266.32 C373.88,264.22 375.07,261.03 375.46,259.24 C375.85,257.45 376.88,254.54 377.76,252.77 C378.05,252.19 378.31,251.26 378.52,250.07 C378.26,251.59 377.96,253.14 377.62,254.69 ZM 372.08 302.14 C373.63,301.13 374.98,300.14 376.09,299.19 C379.83,295.99 380.03,295.59 378.34,294.62 C377.33,294.03 376.05,293.54 375.50,293.53 C374.09,293.49 373.99,288.79 375.36,287.06 C376.24,285.95 376.21,285.79 375.25,286.37 C374.56,286.78 374.00,286.67 374.00,286.12 C374.00,285.57 374.47,284.82 375.05,284.47 C375.76,284.03 375.59,283.02 374.55,281.44 C372.36,278.09 372.63,277.22 375.06,279.83 C376.19,281.05 377.53,281.79 378.04,281.48 C378.54,281.17 380.35,280.73 382.06,280.52 C384.34,280.23 385.03,280.48 384.66,281.45 C384.06,283.01 387.48,287.00 389.40,287.00 C390.13,287.00 394.43,283.14 398.96,278.42 C405.21,271.92 407.57,268.75 410.96,261.86 C408.95,265.97 406.96,269.57 405.40,271.71 C402.33,275.92 387.90,291.00 386.94,291.00 C386.60,291.00 384.51,292.73 382.29,294.84 C380.32,296.72 376.45,299.43 372.08,302.14 ZM 383.13 214.32 L 383.13 214.32 C383.62,216.70 384.02,219.11 384.33,221.51 C383.91,221.19 383.23,221.18 382.15,221.21 L 379.29 221.30 L 379.77 230.40 C380.09,236.59 379.72,242.88 378.63,249.42 C379.81,241.98 379.75,226.09 378.24,217.50 C377.25,211.91 375.48,205.91 373.27,200.50 C373.94,202.04 374.54,203.56 375.03,204.93 C377.34,211.40 378.63,213.71 379.84,213.62 C381.65,213.49 382.42,212.77 382.31,210.93 C382.61,212.06 382.88,213.17 383.12,214.26 ZM 368.41 278.65 C368.30,279.28 368.91,279.69 369.77,279.56 C371.70,279.28 373.52,275.01 371.72,274.98 C370.95,274.98 371.05,274.61 372.00,274.00 C373.29,273.16 373.27,273.03 371.82,273.02 C370.33,273.00 369.05,275.12 368.41,278.65 ZM 339.14 261.00 C339.18,265.23 339.38,265.92 340.00,264.00 C340.44,262.62 340.85,261.95 340.92,262.50 C340.98,263.05 341.47,262.83 342.00,262.00 C343.12,260.27 343.34,258.33 342.30,259.36 C341.92,259.75 341.03,259.04 340.34,257.78 C339.20,255.73 339.08,256.04 339.14,261.00 ZM 291.00 319.58 C291.00,320.63 281.82,319.71 275.34,318.01 C274.58,317.81 273.82,317.61 273.05,317.39 C276.61,318.37 279.67,318.94 281.92,318.96 C284.35,318.98 286.13,318.80 285.88,318.55 C285.63,318.30 280.50,315.60 274.47,312.55 C274.20,312.42 273.94,312.29 273.68,312.15 C278.11,314.39 282.58,316.37 285.75,317.42 C288.64,318.38 291.00,319.35 291.00,319.58 ZM 374.42 263.35 C373.99,264.48 374.36,264.72 375.92,264.31 C378.29,263.69 378.78,260.33 376.50,260.33 C375.67,260.33 375.00,260.67 375.00,261.08 C375.00,261.50 374.74,262.52 374.42,263.35 ZM 352.50 44.89 C352.85,45.07 353.21,45.24 353.59,45.41 C356.73,46.85 359.52,47.82 359.77,47.56 C360.00,47.33 359.96,45.94 359.71,44.32 C359.83,44.77 359.94,45.22 360.04,45.68 C360.91,49.90 360.91,51.48 360.01,52.36 C359.11,53.23 358.91,52.90 359.16,51.00 C359.45,48.84 358.70,48.09 353.61,45.49 C353.23,45.29 352.86,45.09 352.50,44.89 ZM 400.25 263.34 C398.49,262.63 398.69,260.00 400.50,260.00 C401.33,260.00 402.00,260.89 402.00,262.00 C402.00,263.10 401.89,263.96 401.75,263.92 C401.61,263.88 400.94,263.62 400.25,263.34 ZM 224.67 281.33 C223.59,280.25 223.90,279.25 225.50,278.64 C226.52,278.25 227.00,278.69 227.00,280.03 C227.00,282.00 225.93,282.59 224.67,281.33 ZM 306.67 202.33 C307.70,203.37 308.74,203.12 309.28,201.71 C309.57,200.95 309.01,200.43 307.89,200.43 C305.95,200.43 305.49,201.15 306.67,202.33 ZM 326.00 273.05 C326.00,272.59 325.38,271.97 324.61,271.68 C323.64,271.31 323.38,271.72 323.73,273.06 C324.20,274.87 326.00,274.85 326.00,273.05 ZM 221.00 224.44 C221.00,223.58 221.45,223.16 222.00,223.50 C222.55,223.84 223.00,224.54 223.00,225.06 C223.00,225.58 222.55,226.00 222.00,226.00 C221.45,226.00 221.00,225.30 221.00,224.44 ZM 234.00 197.44 C234.00,198.30 233.55,199.00 233.00,199.00 C232.45,199.00 232.00,198.58 232.00,198.06 C232.00,197.54 232.45,196.84 233.00,196.50 C233.55,196.16 234.00,196.58 234.00,197.44 ZM 269.48 316.31 C257.13,312.37 244.24,306.16 233.58,298.92 C225.68,293.57 217.99,285.94 211.30,277.19 C218.14,286.09 226.08,293.87 234.33,299.41 C244.27,306.09 258.48,312.75 269.48,316.31 ZM 360.00 283.00 C360.00,282.45 360.45,282.00 361.00,282.00 C361.55,282.00 362.00,282.45 362.00,283.00 C362.00,283.55 361.55,284.00 361.00,284.00 C360.45,284.00 360.00,283.55 360.00,283.00 ZM 415.14 252.53 C424.59,228.99 424.81,207.17 415.81,187.28 C423.48,203.88 424.45,221.90 418.89,242.00 C418.08,244.93 416.73,248.66 415.14,252.53 ZM 346.53 314.15 C353.77,311.58 361.04,308.40 366.90,305.21 C363.45,307.16 360.02,308.92 357.19,310.14 C354.06,311.48 350.34,312.86 346.53,314.15 ZM 235.46 273.93 C236.44,275.53 237.02,275.22 236.35,273.46 C236.02,272.61 235.54,272.13 235.28,272.39 C235.01,272.65 235.10,273.35 235.46,273.93 ZM 274.88 297.47 C271.97,291.88 269.73,286.33 268.17,280.74 C269.87,286.28 272.35,292.61 274.88,297.47 ZM 325.40 319.69 C326.61,319.48 328.43,319.10 331.17,318.54 L 331.40 318.49 C332.21,318.32 333.03,318.14 333.87,317.94 C330.34,318.86 327.33,319.49 325.40,319.69 ZM 376.79 195.21 C372.97,187.58 367.62,180.06 360.75,172.67 C367.61,180.04 372.98,187.55 376.64,194.85 C376.69,194.97 376.74,195.09 376.79,195.21 ZM 274.55 283.52 L 274.55 283.52 C275.54,286.18 276.39,288.28 277.24,290.25 L 277.24 290.25 C277.43,290.69 277.62,291.12 277.81,291.55 C275.86,287.40 274.22,283.07 273.00,278.74 C273.20,279.42 273.41,280.10 273.63,280.78 C273.81,281.40 274.00,281.99 274.20,282.54 C274.31,282.86 274.43,283.19 274.55,283.52 ZM 355.68 36.05 C353.31,32.90 350.12,29.67 346.70,27.15 C350.41,29.89 353.43,32.89 355.68,36.05 ZM 385.07 234.68 C385.07,235.25 385.06,235.81 385.05,236.36 C384.94,239.21 384.67,241.94 384.25,244.50 C384.67,241.66 384.95,238.36 385.07,234.68 ZM 399.51 163.66 C396.81,160.86 393.80,157.92 390.88,155.26 C392.18,156.42 393.45,157.60 394.63,158.72 C396.33,160.36 397.96,162.00 399.51,163.66 ZM 329.13 296.83 C327.69,299.36 326.37,301.42 324.90,303.38 C326.23,301.49 327.47,299.58 328.60,297.65 C328.78,297.38 328.96,297.10 329.13,296.83 ZM 220.19 199.78 C214.70,195.50 210.46,191.53 207.15,187.48 C210.42,191.45 214.62,195.39 220.19,199.78 ZM 350.03 171.00 C350.04,171.00 350.06,171.00 350.07,171.00 C351.20,171.00 354.66,174.11 358.41,178.16 C354.68,174.15 351.23,171.07 350.03,171.00 ZM 300.45 318.60 C298.61,317.59 296.52,316.02 293.95,313.88 C293.64,313.62 293.34,313.36 293.03,313.09 L 293.09 313.14 C296.11,315.69 298.46,317.48 300.45,318.60 ZM 260.45 304.47 C260.08,304.21 259.76,303.97 259.50,303.76 C256.72,301.49 253.06,298.03 249.99,294.89 C253.08,298.05 256.76,301.52 259.50,303.74 C259.78,303.97 260.10,304.22 260.45,304.47 ZM 285.45 313.82 C285.36,313.86 285.21,313.86 284.97,313.81 C285.18,313.84 285.34,313.84 285.45,313.82 ZM 346.87 40.18 C346.90,40.25 346.93,40.33 346.96,40.40 C346.93,40.34 346.91,40.29 346.89,40.24 C346.89,40.22 346.88,40.20 346.87,40.18 Z" fill="#ffffff" data-index="2" style="opacity: 1;"/>

</g>
</svg>